<?xml version="1.0" encoding="utf-8"?>
<!-- Generator: Adobe Illustrator 27.1.1, SVG Export Plug-In . SVG Version: 6.00 Build 0)  -->
<svg version="1.1" id="Layer_1" xmlns="http://www.w3.org/2000/svg" xmlns:xlink="http://www.w3.org/1999/xlink" x="0px" y="0px"
	 viewBox="0 0 32 32" style="enable-background:new 0 0 32 32;" xml:space="preserve">
<style type="text/css">
	.st0{fill:none;stroke:#FFFFFF;stroke-width:2;}
	.st1{fill:none;stroke:#FFFFFF;stroke-width:2;stroke-linecap:round;}
</style>
<g id="Moderate-Rain">
	<g id="Moderate-rain" transform="translate(3.000000, 2.000000)">
		<g id="Group-2">
			<path id="Oval" class="st0" d="M9.6,4.5C8.8,4.1,7.8,3.9,6.7,3.9C3,3.9,0,6.9,0,10.6s3,6.7,6.7,6.7c1.8,0,3.5-0.7,4.7-1.9"/>
			<path id="Oval_00000139267531355899273890000001828872664529255327_" class="st1" d="M10,13.5c1.6,2.3,4.2,3.8,7.2,3.8
				c4.8,0,8.7-3.9,8.7-8.7S21.9,0,17.1,0C13,0,9.5,2.9,8.7,6.8"/>
		</g>
		
			<g id="Group-3" transform="translate(13.409396, 22.893086) rotate(25.000000) translate(-13.409396, -22.893086) translate(10.409396, 18.893086)">
			<path id="Path-5" class="st1" d="M5,0l0,2"/>
			<path id="Path-6" class="st1" d="M5,5l0,2"/>
			<path id="Path-5_00000182519604469822205950000001023357396837265069_" class="st1" d="M1,1l0,2"/>
			<path id="Path-6_00000090281365009673852690000015419316108235963267_" class="st1" d="M1,6l0,2"/>
		</g>
		
			<g id="Group-3_00000138550663640522238150000018422257508978976687_" transform="translate(4.409396, 22.893086) rotate(25.000000) translate(-4.409396, -22.893086) translate(1.409396, 18.893086)">
			<path id="Path-5_00000074436803852873706100000002962961761605409463_" class="st1" d="M5,0l0,2"/>
			<path id="Path-6_00000163044307507663233350000003800104674692600988_" class="st1" d="M5,5l0,2"/>
			<path id="Path-5_00000112630448313018946500000005636141173885879468_" class="st1" d="M1,1l0,2"/>
			<path id="Path-6_00000137823580682288937810000011267681407054834366_" class="st1" d="M1,6l0,2"/>
		</g>
	</g>
</g>
</svg>
